<?xml version="1.0" encoding="iso-8859-1"?>
<!-- Uploaded to: SVG Repo, www.svgrepo.com, Generator: SVG Repo Mixer Tools -->
<svg height="800px" width="800px" version="1.1" id="Layer_1" xmlns="http://www.w3.org/2000/svg" xmlns:xlink="http://www.w3.org/1999/xlink" 
	 viewBox="0 0 469.333 469.333" xml:space="preserve">
<path style="fill:#FFFFFF;" d="M341.333,437.333c0,11.787-9.547,21.333-21.333,21.333H64c-11.787,0-21.333-9.547-21.333-21.333
	V74.667c0-11.787,9.547-21.333,21.333-21.333h256c11.787,0,21.333,9.547,21.333,21.333V437.333z"/>
<path d="M320,469.333H64c-17.643,0-32-14.357-32-32V74.667c0-17.643,14.357-32,32-32h256c17.643,0,32,14.357,32,32v362.667
	C352,454.976,337.643,469.333,320,469.333z M64,64c-5.877,0-10.667,4.789-10.667,10.667v362.667C53.333,443.211,58.123,448,64,448
	h256c5.877,0,10.667-4.789,10.667-10.667V74.667C330.667,68.789,325.877,64,320,64H64z"/>
<path style="fill:#D8EFF7;" d="M288,426.667H96c-11.787,0-21.333-9.547-21.333-21.333V96h234.667v309.333
	C309.333,417.12,299.787,426.667,288,426.667z"/>
<path style="fill:#D94452;" d="M298.667,96H85.333V74.667c0-35.349,28.651-64,64-64h85.333c35.349,0,64,28.651,64,64V96z"/>
<path d="M298.667,106.667H85.333c-5.888,0-10.667-4.779-10.667-10.667V74.667C74.667,33.493,108.16,0,149.333,0h85.333
	c41.173,0,74.667,33.493,74.667,74.667V96C309.333,101.888,304.555,106.667,298.667,106.667z M96,85.333h192V74.667
	c0-29.408-23.925-53.333-53.333-53.333h-85.333C119.925,21.333,96,45.259,96,74.667V85.333z"/>
<circle cx="192" cy="53.333" r="10.667"/>
<path d="M277.333,160H106.667C100.779,160,96,155.221,96,149.333s4.779-10.667,10.667-10.667h170.667
	c5.888,0,10.667,4.779,10.667,10.667S283.221,160,277.333,160z"/>
<path d="M192,213.333h-85.333c-5.888,0-10.667-4.779-10.667-10.667S100.779,192,106.667,192H192c5.888,0,10.667,4.779,10.667,10.667
	S197.888,213.333,192,213.333z"/>
<path d="M277.333,213.333h-42.667c-5.888,0-10.667-4.779-10.667-10.667S228.779,192,234.667,192h42.667
	c5.888,0,10.667,4.779,10.667,10.667S283.221,213.333,277.333,213.333z"/>
<path d="M277.333,266.667H192c-5.888,0-10.667-4.779-10.667-10.667s4.779-10.667,10.667-10.667h85.333
	c5.888,0,10.667,4.779,10.667,10.667S283.221,266.667,277.333,266.667z"/>
<path d="M149.333,266.667h-42.667C100.779,266.667,96,261.888,96,256s4.779-10.667,10.667-10.667h42.667
	c5.888,0,10.667,4.779,10.667,10.667S155.221,266.667,149.333,266.667z"/>
<path d="M277.333,373.333H192c-5.888,0-10.667-4.779-10.667-10.667c0-5.888,4.779-10.667,10.667-10.667h85.333
	c5.888,0,10.667,4.779,10.667,10.667C288,368.555,283.221,373.333,277.333,373.333z"/>
<path d="M149.333,373.333h-42.667c-5.888,0-10.667-4.779-10.667-10.667c0-5.888,4.779-10.667,10.667-10.667h42.667
	c5.888,0,10.667,4.779,10.667,10.667C160,368.555,155.221,373.333,149.333,373.333z"/>
<path d="M192,320h-85.333C100.779,320,96,315.221,96,309.333s4.779-10.667,10.667-10.667H192c5.888,0,10.667,4.779,10.667,10.667
	S197.888,320,192,320z"/>
<path d="M277.333,320h-42.667c-5.888,0-10.667-4.779-10.667-10.667s4.779-10.667,10.667-10.667h42.667
	c5.888,0,10.667,4.779,10.667,10.667S283.221,320,277.333,320z"/>
<circle style="fill:#F5B945;" cx="341.333" cy="256" r="85.333"/>
<path d="M341.333,352c-52.928,0-96-43.072-96-96s43.072-96,96-96s96,43.072,96,96S394.261,352,341.333,352z M341.333,181.333
	c-41.173,0-74.667,33.493-74.667,74.667s33.493,74.667,74.667,74.667S416,297.173,416,256S382.507,181.333,341.333,181.333z"/>
<path d="M341.333,288c-2.816,0-5.536-1.109-7.541-3.125l-32-32c-4.171-4.171-4.171-10.912,0-15.083
	c4.171-4.171,10.912-4.171,15.083,0l22.336,22.336l24.971-41.621c3.029-5.056,9.579-6.688,14.635-3.659
	c5.056,3.029,6.688,9.579,3.659,14.635l-32,53.333c-1.685,2.816-4.587,4.693-7.84,5.099C342.208,287.979,341.771,288,341.333,288z"
	/>
</svg>