<?xml version="1.0" encoding="utf-8"?>
<!-- Uploaded to: SVG Repo, www.svgrepo.com, Generator: SVG Repo Mixer Tools -->
<svg width="800px" height="800px" viewBox="-37.24 0 306.789 306.789" xmlns="http://www.w3.org/2000/svg"><defs><style>.a{fill:#b5886a;}.b{fill:#211715;}.c{fill:#ffffff;}.d{fill:#f4b467;}</style></defs><path class="a" d="M71.665,162.78a30.214,30.214,0,0,0,9.1-2.883,69.079,69.079,0,0,0,1.079-11.359,46.3,46.3,0,0,1-13.768-11.523,51.6,51.6,0,0,1-9.4-17.513q-.337-.238-.659-.495a15.511,15.511,0,0,1-1.908-1.856l-.032,0c-.1-.015-.2-.04-.3-.058a26.057,26.057,0,0,0-2.5,8.408,42.447,42.447,0,0,0-.29,5.756c.077,4.57,1.234,9.246,1.456,13.816.212,4.551-.974,9.035-5.312,10.5-.174.058-.212.617-.2.762a2.023,2.023,0,0,0,.347.974,6.66,6.66,0,0,0,2.228,1.947,29.623,29.623,0,0,0,15.336,3.908A33.69,33.69,0,0,0,71.665,162.78Z"/><path class="b" d="M53.8,115.665c-3.012,5.976-3.688,12.8-2.952,19.389.4,3.569,1.164,7.131,1.21,10.732.026,2.08-.212,4.478-1.614,6.125-.852,1-2.128,1.1-3.017,1.96-1.261,1.215-1.056,3.265-.231,4.644,1.457,2.436,4.614,3.775,7.136,4.785a34.559,34.559,0,0,0,19.243,1.574c6.216-1.207,12.677-4.258,16.341-9.608,1.75-2.555-2.407-4.959-4.144-2.423C82.3,157.912,75,160.227,69.134,160.665a30.674,30.674,0,0,1-10.807-1.059,23.249,23.249,0,0,1-4.28-1.671,14.689,14.689,0,0,1-1.964-1.155c-.163-.121-.469-.539-.664-.59-.281-.073.019-.241-.088.139l-.617,1.059.106-.123-1.059.617c7.4-2.686,7.5-10.713,6.626-17.332-1-7.559-2.017-15.372,1.557-22.462,1.387-2.752-2.752-5.185-4.145-2.423Z"/><path class="c" d="M158.039,85.518a7.729,7.729,0,0,1,6.185-1.809,7.3,7.3,0,0,1,5.248,3.489,10.307,10.307,0,0,1,1.081,4.152,30.93,30.93,0,0,1-3.153,16.394,19.672,19.672,0,0,1-5.083,6.671,13.025,13.025,0,0,1-6.061,2.731s-.376.058-1.041.175c-.5,1.855-1.053,3.417-1.327,4.248-1.894,5.14-13.131,23.859-26.842,28.562.182,2.193.479,4.384.862,6.567.62,3.54.42,6.69,5.33,8.47.33.11,16.7,7.5,17.19,7.7,0,0-11.331,26.663-47.775,26.663s-44.2-26.661-44.2-26.661c2.518-.889,16.636-7.588,16.961-7.705,4.911-1.773,4.717-4.931,5.336-8.463a72.83,72.83,0,0,0,.982-8.221,46.378,46.378,0,0,1-13.661-11.466,52.587,52.587,0,0,1-10.024-19.569c-1.229-.185-1.975-.3-1.975-.3a13.021,13.021,0,0,1-6.06-2.731,19.672,19.672,0,0,1-5.083-6.671A30.931,30.931,0,0,1,41.776,91.35,10.323,10.323,0,0,1,42.857,87.2a7.3,7.3,0,0,1,5.248-3.489,7.731,7.731,0,0,1,6.186,1.809s-4.083-47.765,54.584-47.765C166.653,37.753,158.039,85.518,158.039,85.518Z"/><path class="b" d="M124.558,148.978c.184,2.65.515,5.288.958,7.906a34.478,34.478,0,0,0,.837,4.544,8.456,8.456,0,0,0,2.761,4.177,11.082,11.082,0,0,0,2.77,1.593c.237.1.518.179.749.3-.9-.46-.533-.23-.306-.127,4.1,1.852,8.216,3.681,12.322,5.526,1.71.769,3.411,1.565,5.141,2.288a2.414,2.414,0,0,0,2.953-1.676,2.462,2.462,0,0,0-1.677-2.952c1.239.518-.32-.154-.617-.287l-2.507-1.126-6.836-3.073q-2.82-1.268-5.642-2.529c-1.708-.758-3.5-1.36-4.269-2.826,0,0-.168-.362-.081-.158s-.116-.35-.133-.4a11.449,11.449,0,0,1-.3-1.212c-.144-.73-.237-1.469-.352-2.2-.405-2.585-.794-5.145-.975-7.758a2.457,2.457,0,0,0-2.4-2.4,2.421,2.421,0,0,0-2.4,2.4Z"/><path class="b" d="M79.438,145.723a90.339,90.339,0,0,1-1.305,12.3,7.49,7.49,0,0,1-1.014,3.269,7.617,7.617,0,0,1-2.954,1.818c-3.642,1.607-7.218,3.374-10.839,5.03-1.177.538-2.355,1.074-3.539,1.6l-.816.356-.25.108c-.421.183.3-.124.044-.018-.315.128-.629.259-.949.374a2.464,2.464,0,0,0-1.677,2.953,2.421,2.421,0,0,0,2.953,1.676c4.512-1.623,8.851-3.9,13.191-5.926l2.891-1.351a6.383,6.383,0,0,0,1.413-.654c-.1.086-1.117.466-.147.079.219-.087.436-.181.653-.273a10.606,10.606,0,0,0,1.4-.7,8.758,8.758,0,0,0,2.073-1.728,9.4,9.4,0,0,0,2-4.264,80.855,80.855,0,0,0,1.665-14.642c.063-3.09-4.737-3.09-4.8,0Z"/><path class="a" d="M166.2,51.4c-.2-1.141-.395-2.2-.589-3.145C160.23,21.894,133.678.969,105.834,2.5,77.99.969,51.439,21.894,46.063,48.256c-1.457,7.109-1.282,19.274.042,24.95l2.666,10.442a7.677,7.677,0,0,1,5.52,1.87C65.3,77.885,83.962,64.624,93.627,56.312c-.8,4.934-3.62,13.326-.062,12.463,14.858-3.44,29.1-10.379,37.709-21.2,1.814,6.391,4.814,15.025,7.017,18.8,3.118,5.339,12.153,17.353,19.748,19.148a7.729,7.729,0,0,1,6.185-1.809,7.451,7.451,0,0,1,.964.21C169.057,74.958,167.754,60.486,166.2,51.4Z"/><path class="b" d="M48.39,72.794a47.7,47.7,0,0,1-.933-9.363A83.293,83.293,0,0,1,47.866,52.2a48.345,48.345,0,0,1,6.712-19.211A58.731,58.731,0,0,1,87.241,7.256,52.953,52.953,0,0,1,97.575,5.092a110.239,110.239,0,0,1,11.147-.273A53.839,53.839,0,0,1,129.64,9.152,58.6,58.6,0,0,1,159.7,37.918a62.039,62.039,0,0,1,4.867,18.726c.886,7.17,1.378,14.781-.2,21.889a27.6,27.6,0,0,1-1.456,4.66,2.414,2.414,0,0,0,1.676,2.952,2.461,2.461,0,0,0,2.952-1.676c2.93-7.023,2.9-15.254,2.337-22.718-.528-7.048-1.5-14.325-3.875-21.011A62.324,62.324,0,0,0,136.424,7.093,61.035,61.035,0,0,0,114.271.31a107.161,107.161,0,0,0-11.5-.291,57.609,57.609,0,0,0-11.816,1.3A63.616,63.616,0,0,0,53.32,26.177a56.131,56.131,0,0,0-9.351,20.416,70.863,70.863,0,0,0-.943,22.723,41.011,41.011,0,0,0,.735,4.754c.683,3.011,5.312,1.736,4.629-1.276Z"/><path class="b" d="M129.18,48.986c1.08,3.69,2.278,7.351,3.641,10.947a49.191,49.191,0,0,0,3.843,8.39A62.343,62.343,0,0,0,148.5,82.6c2.586,2.256,5.524,4.384,8.9,5.231,3,.751,4.275-3.877,1.276-4.629-5.121-1.283-9.534-6.311-12.884-10.369A48.22,48.22,0,0,1,137.8,59.567c-1.514-3.886-2.82-7.856-3.991-11.857-.865-2.959-5.5-1.7-4.628,1.276Z"/><path class="b" d="M129.726,45.686a53.305,53.305,0,0,1-18.185,14.231,77.609,77.609,0,0,1-11.478,4.6q-2.94.928-5.936,1.659c-.266.065-.535.122-.8.192l-.2.047q-.371.072-.063.033c.037-.083-.035-.03.147.009a1.526,1.526,0,0,1,.639.255c.126.093.688.8.413.5a1.35,1.35,0,0,1-.076-.354c.042.229.029.3.028.027-.01-3.2,1.169-6.586,1.725-9.929a2.422,2.422,0,0,0-4.011-2.336c-9.685,8.309-20.2,15.7-30.611,23.059q-4.107,2.905-8.239,5.772a2.462,2.462,0,0,0-.861,3.284,2.421,2.421,0,0,0,3.283.861C66.379,80.044,77.183,72.365,87.637,64.24c2.6-2.024,5.183-4.083,7.687-6.23l-4.011-2.336c-.587,3.529-1.786,7.033-1.9,10.629-.049,1.6.3,3.452,1.764,4.372,1.682,1.058,3.663.281,5.418-.172a79.119,79.119,0,0,0,25.51-11.263A51.706,51.706,0,0,0,133.12,49.08a2.475,2.475,0,0,0,0-3.394,2.417,2.417,0,0,0-3.394,0Z"/><path class="b" d="M159.736,87.216a5.218,5.218,0,0,1,7.486.894c.956,1.4.987,3.374,1.032,5.009a27.4,27.4,0,0,1-.378,5.539c-1.2,6.736-4.756,14.877-12.258,16.174a2.42,2.42,0,0,0-1.676,2.952,2.455,2.455,0,0,0,2.952,1.677c7.8-1.349,12.45-8.617,14.658-15.641a32.76,32.76,0,0,0,1.464-11.586c-.222-3.918-1.358-7.654-4.973-9.7a10.243,10.243,0,0,0-11.7,1.283,2.423,2.423,0,0,0,0,3.395,2.452,2.452,0,0,0,3.395,0Z"/><path class="b" d="M153.777,111.391a26.041,26.041,0,0,1-1.236,6.56c-.241.806-.5,1.6-.773,2.4-.077.23-.156.458-.235.687-.16.469-.093.235-.03.094a51.547,51.547,0,0,1-3.411,6.269A61.652,61.652,0,0,1,134.338,143.3a26.11,26.11,0,0,1-10.181,5.157c-3.009.693-1.735,5.322,1.276,4.629,7.741-1.782,14.224-7.351,19.332-13.19a66.248,66.248,0,0,0,10.733-16,34.035,34.035,0,0,0,3.079-12.5c.1-3.089-4.7-3.086-4.8,0Z"/><path class="b" d="M55.988,83.821a10.2,10.2,0,0,0-10.3-1.929c-3.784,1.491-5.725,4.671-6.213,8.6a31.8,31.8,0,0,0,5.553,22.047,16.678,16.678,0,0,0,10.411,6.918,2.47,2.47,0,0,0,2.952-1.677,2.42,2.42,0,0,0-1.676-2.952c-7.495-1.3-11.065-9.438-12.257-16.174a27.617,27.617,0,0,1-.378-5.539c.044-1.65.086-3.585,1.032-5.009a5.216,5.216,0,0,1,7.486-.894,2.464,2.464,0,0,0,3.394,0,2.422,2.422,0,0,0,0-3.395Z"/><path class="b" d="M54.07,110.668c2.812,16.219,11.593,32.107,26.6,39.965A36.319,36.319,0,0,0,93.865,154.6a2.416,2.416,0,0,0,2.4-2.4,2.454,2.454,0,0,0-2.4-2.4c-15.5-1.61-27.557-15.534-32.4-29.5a69.243,69.243,0,0,1-2.761-10.91,2.42,2.42,0,0,0-2.953-1.676,2.455,2.455,0,0,0-1.676,2.952Z"/><path class="b" d="M100.189,86.411c0,1.447.141,2.892.144,4.339a2.482,2.482,0,0,0,.7,1.7,2.4,2.4,0,0,0,3.395,0,2.488,2.488,0,0,0,.7-1.7c0-1.447-.142-2.892-.144-4.339a2.482,2.482,0,0,0-.7-1.7,2.4,2.4,0,0,0-3.395,0,2.488,2.488,0,0,0-.7,1.7Z"/><path class="b" d="M108.522,86.411c0,1.447.142,2.892.145,4.339a2.477,2.477,0,0,0,.7,1.7,2.4,2.4,0,0,0,3.394,0,2.494,2.494,0,0,0,.7-1.7c0-1.447-.143-2.892-.145-4.339a2.477,2.477,0,0,0-.7-1.7,2.4,2.4,0,0,0-3.394,0,2.489,2.489,0,0,0-.7,1.7Z"/><path class="d" d="M199.8,304.389c-1.817-23.413-3.8-51.318-6.042-73.555-.969-9.589-.8-25.512-11.385-37.221-9.6-10.621-26.7-20.516-32.456-21.193-7.658,6.49-29.734,13.022-45.956,12.981-17.524-.043-36.284-6.55-46.168-13.07-10.737,3.636-27.409,10.512-32.372,21.282C14.023,215.152,5.068,242.884,2.657,259.1c-2.189,14.72,6.04,32.478,25.377,29.417,9.092-1.438,12.2-1.76,20.582-4.16.4-.115.835-.249,1.306-.4-.179,9.2-.353,12.073-.5,20.221Z"/><path class="b" d="M161.114,226.4c.067,1.665-.047,3.355-.076,5.02q-.106,6.036-.2,12.072-.262,18.414-.247,36.83.027,11.683.251,23.364c.064,3.085,4.864,3.095,4.8,0-.494-23.7-.241-47.422.171-71.125.036-2.043.178-4.117.1-6.161-.125-3.078-4.925-3.094-4.8,0Z"/><path class="b" d="M149.325,174.738c3.07.417,5.491,1.761,8.187,3.171a95.35,95.35,0,0,1,11.767,7.359,74.784,74.784,0,0,1,10.92,9.518,35.227,35.227,0,0,1,7.386,12.42c2.8,8.028,3.062,16.453,3.9,24.825,1.113,11.172,2.046,22.363,2.936,33.555,1.028,12.932,1.983,25.869,2.986,38.8a2.46,2.46,0,0,0,2.4,2.4,2.42,2.42,0,0,0,2.4-2.4c-1.819-23.453-3.438-46.927-5.723-70.341-.855-8.755-1.084-17.72-3.644-26.2A42.157,42.157,0,0,0,185.89,194.1a61.937,61.937,0,0,0-10.937-10.518,101.277,101.277,0,0,0-13.893-9.216c-3.189-1.736-6.8-3.759-10.459-4.256a2.483,2.483,0,0,0-2.952,1.676,2.417,2.417,0,0,0,1.676,2.953Z"/><path class="b" d="M56.726,174.5a77.248,77.248,0,0,0,17.166,7.993,101.1,101.1,0,0,0,21.887,4.852c13.386,1.431,27.136-.847,39.825-5.173,5.6-1.91,11.421-4.212,16.01-8.048a2.418,2.418,0,0,0,0-3.394,2.452,2.452,0,0,0-3.394,0c-.17.142-.34.285-.516.42.376-.291-.25.176-.263.185-.411.286-.823.568-1.246.836-1.025.649-2.087,1.237-3.168,1.786a63.292,63.292,0,0,1-7.336,3.11,107.481,107.481,0,0,1-18.164,4.719,84.866,84.866,0,0,1-39.772-3.077,74.994,74.994,0,0,1-18.606-8.354c-2.6-1.687-5.007,2.467-2.423,4.145Z"/><path class="d" d="M208.211,122.262c-1.68,3.054-8.135,15.7-9.274,17.787-2.459-1.914-7.046-5.149-8.739-6.312-2.239,4.778-11.539,27.261-14.1,32.96,1.4-1.414,14.518-13.565,17.316-16.448.593,1.605,1.88,4.681,2.959,7.207,1.981-1.939,20.341-21.517,24.51-26.064C219.811,130.653,209.545,123.219,208.211,122.262Z"/><path class="d" d="M228.9,166.566c-2.39,1.058-11.992,5.668-13.619,6.394-.6-2.26-1.863-6.275-2.344-7.739-3.508,1.832-19.278,11.015-23.4,13.25,1.475-.209,14.829-1.491,17.808-1.939-.375,1.228-1.006,3.648-1.512,5.645,2.064-.256,21.919-3.587,26.473-4.4C232,176.846,229.259,167.743,228.9,166.566Z"/><path class="c" d="M152.854,221.692a4.009,4.009,0,0,0,1.274-5.848c-1.682-2.115-4.631-.984-6.9-.358-2.881.948-15.891,5.347-18.845,6.424a2.143,2.143,0,0,0,.435-.06c-1.308.406-1.287.37-.435.06-2.334.043,13.1-8.787,15.287-10.048,1.71-.985,3.1-2,2.657-4.239-.84-4.2-5.705-2.781-8.107-1.552-6.1,3.122-14.359,6.477-20.3,10.787-1.5,2.35,1.523-3.264,2.021-4.169,1.272-2.309,2.645-4.238,1.753-7.1-.63-2.022-2.347-2.78-4.436-2.647-2.84.181-4.722,3.573-6.1,5.357-2.521,3.262-4.583,6.506-7.484,9.879-2.676,3.112-4.527,7.313-6.841,10.769,3.518,7.29,8.889,19.1,11.072,24.073a36.953,36.953,0,0,1,8.059-1.753A23.122,23.122,0,0,0,125.93,248a44.161,44.161,0,0,1,8.87-2.956c5.047-1.118,8.033-2.425,14.13-4.3a3.987,3.987,0,0,0,2.719-4.4c-.347-1.606-1.432-2.719-4.183-2.615l-3.784.143,5.513-1.8c2.006-.657,4.91-2.071,5.949-4.025C156.633,225.254,155.8,222.391,152.854,221.692Z"/><path class="b" d="M98.943,230.125c2.411-3.661,4.251-7.61,7.064-11,2.848-3.431,5.45-7.119,8.048-10.743.747-1.042,1.662-2.512,2.936-2.969a1.872,1.872,0,0,1,2.393.812c.7,1.579-.386,3.242-1.129,4.569q-1.22,2.178-2.355,4.4c-1.4,2.746,2.74,5.178,4.144,2.422,1.453-2.849,3.742-5.834,4.223-9.034.624-4.143-1.894-7.79-6.159-8.046-3.856-.23-6.25,2.709-8.284,5.542-2.334,3.249-4.656,6.571-7.211,9.65a44.916,44.916,0,0,0-4.221,5.913c-1.192,2.024-2.3,4.095-3.593,6.057-1.7,2.588,2.451,5,4.144,2.423Z"/><path class="b" d="M147.867,217.8a22.542,22.542,0,0,1,3.105-.783c-.425.055.134,0,.26,0a4.179,4.179,0,0,1,.652.025c-.671-.093.561.318,0,.018.082.044.62.352.227.129q.256.291.118.1t.073.115a3.676,3.676,0,0,1,.2.372c-.094-.22-.115-.248-.061-.085a2.6,2.6,0,0,1,.076.3q-.043-.446-.011-.021c0,.086-.057.742.032.189a4.177,4.177,0,0,1-.185.707q-.088.243.036-.09a4.047,4.047,0,0,1-.209.368c-.323.581.256-.344-.156.181-.206.181-.209.2-.008.049a4.009,4.009,0,0,1-.372.241,2.429,2.429,0,0,0,.573,4.386c.134.035.891.375.481.141a4.153,4.153,0,0,1,.359.21q-.318-.27-.014-.007a3.713,3.713,0,0,1,.269.278c-.156-.211-.187-.246-.091-.1s.266.714.129.2c.041.154.125.9.106.322a5.557,5.557,0,0,1-.014.826c.05-.442-.036.067-.079.223s-.087.294-.139.439q.148-.309-.039.089a4.807,4.807,0,0,1-.451.756c.294-.381-.182.157-.207.182a4.414,4.414,0,0,1-1.205.92,14.53,14.53,0,0,1-1.493.8c-.142.066-.284.13-.428.192q.332-.142-.054.014c-.263.093-.523.193-.789.281a2.456,2.456,0,0,0-1.676,2.953,2.425,2.425,0,0,0,2.953,1.676c3.4-1.136,6.758-3.042,8.017-6.584a6.331,6.331,0,0,0-4.359-8.431l.574,4.386c3.051-1.85,4.33-6.122,2.135-9.131a5.838,5.838,0,0,0-4.859-2.414,17.994,17.994,0,0,0-4.751.953c-2.97.831-1.709,5.463,1.276,4.628Z"/><path class="b" d="M124.719,245.93c-5.354,3.391-11.775,2.755-17.609,4.826a2.46,2.46,0,0,0-1.676,2.952,2.421,2.421,0,0,0,2.952,1.676,55.38,55.38,0,0,1,9.765-2.021,24.088,24.088,0,0,0,8.99-3.288,2.4,2.4,0,0,0-2.422-4.145Z"/><path class="b" d="M146.591,213.172c-6.419,2.114-12.906,4.156-19.222,6.563a2.469,2.469,0,0,0-1.676,2.952,2.418,2.418,0,0,0,2.953,1.676c6.315-2.406,12.8-4.448,19.221-6.563a2.453,2.453,0,0,0,1.676-2.952,2.424,2.424,0,0,0-2.952-1.676Z"/><path class="b" d="M151.643,219.62c.9-.385-.041.011-.256.1-.333.132-.668.261-1,.39-.8.309-1.612.611-2.419.912-2.189.816-4.382,1.618-6.575,2.422-3.8,1.391-7.625,2.73-11.381,4.237a2.476,2.476,0,0,0-1.676,2.953,2.416,2.416,0,0,0,2.952,1.676c7.524-3.02,15.321-5.365,22.781-8.543a2.414,2.414,0,0,0,.861-3.283,2.462,2.462,0,0,0-3.284-.861Z"/><path class="b" d="M149,229.723c-3.367.928-6.676,2.1-10,3.173-1.834.594-3.668,1.187-5.509,1.757a21.61,21.61,0,0,1-3.209.9A2.416,2.416,0,0,0,128.6,238.5a2.463,2.463,0,0,0,2.952,1.677,21.732,21.732,0,0,0,3.209-.895c1.841-.57,3.675-1.164,5.509-1.758,3.322-1.076,6.631-2.245,10-3.172,2.975-.82,1.712-5.452-1.276-4.629Z"/><path class="b" d="M117.22,220.474a53.454,53.454,0,0,1,11.56-7.163c2.092-1.045,4.209-2.04,6.319-3.047.966-.46,1.931-.923,2.89-1.4.483-.238.96-.486,1.443-.724.129-.063.258-.128.388-.189.375-.176-.063.015.185-.084a10.758,10.758,0,0,1,2.093-.614,3.064,3.064,0,0,1,1.432.06c-.212-.081.295.245.215.164a.949.949,0,0,1,.2.469.9.9,0,0,1-.348,1.125,19.215,19.215,0,0,1-2.955,1.765q-2.022,1.172-4.033,2.362a88.2,88.2,0,0,0-9.358,6.039,2.413,2.413,0,0,0,0,3.394,2.462,2.462,0,0,0,3.394,0c-.534.416.285-.2.42-.294.314-.222.632-.437.951-.651.758-.5,1.526-1,2.3-1.479,1.729-1.083,3.478-2.132,5.234-3.17q2.138-1.263,4.289-2.5a11.355,11.355,0,0,0,4.133-3.233,6.068,6.068,0,0,0-.745-7.133c-1.509-1.649-3.789-1.931-5.887-1.624a17.615,17.615,0,0,0-5.28,1.932c-2.3,1.149-4.64,2.231-6.959,3.347-5.363,2.58-10.764,5.305-15.27,9.253-2.328,2.039,1.078,5.423,3.394,3.394Z"/><path class="b" d="M137.7,238.368c1.612-.348,3.2-.792,4.8-1.2.891-.226,1.783-.448,2.68-.645.307-.068.615-.133.923-.193a5.848,5.848,0,0,0,.707-.135,4.94,4.94,0,0,1,2.066.074c.055.017.084-.017.243.138-.334-.326.24.554.086.119a1.175,1.175,0,0,1-.067,1.149,2.051,2.051,0,0,1-.6.635c.217-.157-.794.352-.253.125-1.9.795-3.993,1.277-5.949,1.93-1.752.585-3.508,1.162-5.291,1.651-4.2,1.151-8.358,2.045-12.333,3.912a2.421,2.421,0,0,0-.861,3.284,2.453,2.453,0,0,0,3.283.861c3.521-1.654,7.29-2.373,11.016-3.383,3.4-.92,6.7-2.144,10.057-3.205a8.6,8.6,0,0,0,4.345-2.4,6.108,6.108,0,0,0,1.4-5.365c-.759-3.4-4.088-4.679-7.272-4.3-3.492.41-6.839,1.587-10.264,2.327-3.018.651-1.74,5.279,1.276,4.628Z"/><path class="b" d="M46.856,226.67c0,4.374.091,8.748.094,13.122a2.4,2.4,0,1,0,4.8,0c0-4.374-.093-8.748-.094-13.122a2.4,2.4,0,0,0-4.8,0Z"/><path class="b" d="M129.286,195.422a15.177,15.177,0,0,0,7.4-.232,16.524,16.524,0,0,0,6.511-4.253l-3.769-.485c2.718,5.239,9.8,6.814,14.843,4.382l-3.612-2.073c-.161,4.243,1.589,8.857,5.085,11.4a2.418,2.418,0,0,0,3.284-.861,2.455,2.455,0,0,0-.861-3.283c-1.912-1.393-2.8-4.817-2.708-7.259a2.426,2.426,0,0,0-3.611-2.072,6.645,6.645,0,0,1-8.276-2.66,2.421,2.421,0,0,0-3.769-.486c-2.618,2.626-5.515,3.911-9.24,3.25a2.47,2.47,0,0,0-2.953,1.676,2.423,2.423,0,0,0,1.677,2.953Z"/><path class="b" d="M153.283,251.309a13.756,13.756,0,0,0-12.24,12.51l3.611-2.072c-5.074-3.748-12.32-1.508-15.522,3.554h4.145a18.491,18.491,0,0,0-9.309-6.938c-2.959-.911-4.225,3.721-1.276,4.628a13.077,13.077,0,0,1,6.44,4.733,2.436,2.436,0,0,0,4.145,0,6.224,6.224,0,0,1,8.954-1.833c1.633,1.206,3.43-.485,3.612-2.072a8.819,8.819,0,0,1,7.44-7.71,2.471,2.471,0,0,0,2.4-2.4,2.415,2.415,0,0,0-2.4-2.4Z"/><path class="b" d="M47.5,285.222c-.132,6.32-.359,12.636-.475,18.956-.056,3.09,4.744,3.09,4.8,0,.116-6.32.343-12.636.475-18.956.064-3.09-4.736-3.089-4.8,0Z"/><path class="b" d="M56.351,170.109a98.411,98.411,0,0,0-15.473,6.521c-5.008,2.663-9.978,5.915-13.753,10.2a33.538,33.538,0,0,0-4.529,7.017q-2.3,4.439-4.371,8.989-4.449,9.723-8.083,19.794C6.09,233.8,2.492,245.333.559,257.083c-1.577,9.581.016,20.128,6.929,27.415a21.817,21.817,0,0,0,13.113,6.55,31.315,31.315,0,0,0,9.006-.365c2.948-.463,5.9-.894,8.838-1.427a85.762,85.762,0,0,0,13.31-3.4c3.419-1.212,6.764-2.643,10.088-4.091,8.339-3.634,16.547-7.579,24.69-11.632,6.759-3.365,13.545-6.751,20.076-10.545,1.376-.8,3.475-1.727,4.308-3.164.809-1.393-.2-2.923-.756-4.208q-.889-2.034-1.8-4.055c-3.454-7.692-6.924-15.4-10.681-22.945-.5-1.006-1-2.019-1.567-2.99a2.427,2.427,0,0,0-2.711-1.1C78.307,226.8,63.209,232.46,48.024,237.881c-3.9,1.393-7.807,2.772-11.739,4.077-2.917.969-1.667,5.606,1.276,4.629,15.957-5.3,31.69-11.312,47.435-17.2q4.842-1.812,9.68-3.632l-2.71-1.1c2.212,3.79,3.958,7.9,5.812,11.873q3.585,7.683,7.046,15.424c.419.938.837,1.877,1.247,2.819.084.192.167.385.25.577.048.109.278.652.081.184-.185-.438.071.172.129.325l.242-1.849c.541-.78.313-.4.059-.176.546-.475.217-.164-.146.083-.613.417-1.251.8-1.889,1.177-1.975,1.169-3.992,2.266-6.013,3.352-6.02,3.231-12.122,6.31-18.255,9.32-6.6,3.239-13.24,6.4-19.967,9.361q-1.017.448-2.037.89l-1.095.469L57,278.66c-.4.168.134-.054-.375.158-1.259.524-2.52,1.04-3.791,1.532a75.109,75.109,0,0,1-7.918,2.538,129.063,129.063,0,0,1-13.228,2.643c-4.477.7-8.866,1.472-13.263.208C11.588,283.773,7.282,277.7,5.581,270.95c-1.886-7.49-.169-14.972,1.671-22.518a241.424,241.424,0,0,1,9.438-29.653q2.943-7.629,6.387-15.051,1.758-3.765,3.664-7.458a30.385,30.385,0,0,1,3.16-5.319c5.5-6.795,14.145-11.047,22.121-14.191q2.772-1.093,5.605-2.022c2.921-.961,1.67-5.6-1.276-4.629Z"/><path class="b" d="M53.11,85.418c.132.158.261.317.392.476.335.411-.138-.191.167.214.318.42.625.847.928,1.278.628.9,1.229,1.81,1.818,2.732,1.343,2.1,2.617,4.252,3.863,6.415,2.076,3.6,4.042,7.264,6.077,10.889,1.512,2.694,5.66.277,4.144-2.423-2.085-3.715-4.1-7.469-6.231-11.158A82.107,82.107,0,0,0,56.5,82.024a2.419,2.419,0,0,0-3.394,0,2.452,2.452,0,0,0,0,3.394Z"/><path class="b" d="M155.375,83.239q-5.7,8.542-11.294,17.147c-1,1.538-2.007,3.077-3,4.623-1.67,2.61,2.482,5.02,4.144,2.423,4.156-6.494,8.417-12.924,12.675-19.352.535-.808,1.078-1.611,1.615-2.418,1.718-2.577-2.437-4.983-4.144-2.423Z"/><path class="c" d="M104.889,102.946c-8.123,0-21.673,1.257-30.461,1.946-1.625.127-5.605.6-6.657,1.8-1.956,2.247-1.214,7.042-1.467,9.766a70.915,70.915,0,0,0,.381,13.069c.585,5.744.87,11.865,4.734,16.345,7.142,8.282,23.693,12.692,34.567,12.692a64.671,64.671,0,0,0,21.277-3.926c5.93-2.166,11.474-5.8,14.577-11.025,2.926-4.927,2.811-9.866,3.439-15.478a59.206,59.206,0,0,0,.226-11.889c-.268-2.717.413-7.156-1.567-9.43-1.052-1.207-4.333-1.769-5.957-1.911C127.679,104.007,113.915,102.946,104.889,102.946Z"/><path class="b" d="M104.889,100.546c-7.913.015-15.831.754-23.712,1.4a94.384,94.384,0,0,0-10.61,1.066A8.343,8.343,0,0,0,66.074,105a8.979,8.979,0,0,0-2,5.388c-.178,1.7-.072,3.407-.12,5.112-.06,2.131-.253,4.237-.2,6.375a123.676,123.676,0,0,0,1.1,12.992c.565,4.335,1.605,8.59,4.366,12.086a27.569,27.569,0,0,0,8.022,6.558A59.052,59.052,0,0,0,98.4,160.376a60.972,60.972,0,0,0,25.377-2.073c8.1-2.348,16.447-6.494,20.575-14.253,2.166-4.071,2.646-8.568,3.053-13.087a81.733,81.733,0,0,0,.541-14.3c-.293-3.456.4-7.5-1.572-10.576-2.084-3.246-6.638-3.433-10.1-3.73-8.614-.74-17.245-1.421-25.887-1.712-1.833-.062-3.666-.1-5.5-.1-3.088-.005-3.093,4.795,0,4.8,7.7.011,15.4.554,23.065,1.138,3.57.272,7.615.37,10.937.942a16.753,16.753,0,0,1,2.134.494,3,3,0,0,1,1.2.594c.82,1.048.758,2.816.785,4.071.082,3.857.411,7.694.2,11.555-.12,2.21-.39,4.406-.589,6.609a55.235,55.235,0,0,1-.7,5.751,18.16,18.16,0,0,1-5.208,9.722,27.748,27.748,0,0,1-9.17,5.755,55.94,55.94,0,0,1-43.3-.343c-5.685-2.394-11.686-5.985-13.61-12.208-1.1-3.565-1.312-7.355-1.663-11.049a84.546,84.546,0,0,1-.23-12.449c.083-1.621-.031-3.247.078-4.868a7.931,7.931,0,0,1,.331-1.934,2.319,2.319,0,0,1,.211-.523c.1-.174.2-.335.107-.21.23-.3-.114.032.116-.088,2.167-1.138,5.469-1.06,8.074-1.273,7.482-.61,14.967-1.28,22.469-1.578,1.587-.063,3.174-.1,4.762-.108C107.978,105.34,107.983,100.54,104.889,100.546Z"/><path class="b" d="M123,96.825c3.343-.231,6.661-.757,10-1.038a2.4,2.4,0,1,0,0-4.8c-3.339.281-6.657.807-10,1.038a2.4,2.4,0,1,0,0,4.8Z"/><path class="b" d="M89.74,92.025c-3.344-.231-6.661-.757-10-1.038a2.41,2.41,0,0,0-2.4,2.4,2.461,2.461,0,0,0,2.4,2.4c3.339.281,6.656.807,10,1.038a2.413,2.413,0,0,0,2.4-2.4,2.459,2.459,0,0,0-2.4-2.4Z"/></svg>